<svg viewBox="0 0 110.4 60.5" xmlns="http://www.w3.org/2000/svg" xmlns:xlink="http://www.w3.org/1999/xlink" id="Calque_1" xml:space="preserve" overflow="hidden"><path d="M89.2 32.8C94.9 30 98.9 24.1 98.9 17.3 98.9 7.8 91.2 0 81.6 0 72 0 64.3 7.8 64.3 17.3 64.3 24.1 68.3 30 74 32.8 65.5 35.1 58.6 41.3 55.2 49.3 51.8 41.3 44.9 35.2 36.4 32.8 42.1 30 46 24.1 46 17.3 46 7.8 38.3 0 28.7 0 19.2 0 11.4 7.8 11.4 17.3 11.4 24.1 15.4 30 21.1 32.8 9 36.2 0 47.3 0 60.5L4.6 60.5C4.6 47.2 15.4 36.4 28.7 36.4 42 36.4 52.8 47.2 52.8 60.5L57.4 60.5C57.4 47.2 68.2 36.4 81.5 36.4 94.8 36.4 105.6 47.2 105.6 60.5L110.2 60.5C110.4 47.3 101.4 36.2 89.2 32.8ZM16 17.3C16 10.3 21.7 4.6 28.7 4.6 35.7 4.6 41.4 10.3 41.4 17.3 41.4 24.3 35.7 30 28.7 30 21.7 30 16 24.3 16 17.3ZM68.9 17.3C68.9 10.3 74.6 4.6 81.6 4.6 88.6 4.6 94.3 10.3 94.3 17.3 94.3 24.3 88.6 30 81.6 30 74.6 30 68.9 24.3 68.9 17.3Z" fill="#053359"/></svg>