<svg viewBox="0 0 59.4 90" xmlns="http://www.w3.org/2000/svg" xmlns:xlink="http://www.w3.org/1999/xlink" id="Calque_1" xml:space="preserve" overflow="hidden"><path d="M29.7 47.3C20 47.3 12 39.4 12 29.6 12 19.8 19.9 12 29.7 12 39.5 12 47.4 19.9 47.4 29.7 47.4 39.5 39.4 47.3 29.7 47.3ZM29.7 16.6C22.5 16.6 16.6 22.5 16.6 29.7 16.6 36.9 22.5 42.8 29.7 42.8 36.9 42.8 42.8 36.9 42.8 29.7 42.8 22.5 36.9 16.6 29.7 16.6Z" fill="#053359"/><path d="M29.7 90C28.9 90 28.2 89.6 27.8 89 26.7 87.4 0 48.8 0 29.7 0 13.3 13.3 0 29.7 0 46.1 0 59.4 13.3 59.4 29.7 59.4 48.8 32.7 87.4 31.6 89 31.1 89.6 30.4 90 29.7 90ZM29.7 4.6C15.9 4.6 4.6 15.9 4.6 29.7 4.6 44.6 23.6 74.4 29.7 83.6 35.8 74.4 54.8 44.6 54.8 29.7 54.8 15.9 43.5 4.6 29.7 4.6Z" fill="#053359"/></svg>