<svg viewBox="0 0 70.6 101.9" xmlns="http://www.w3.org/2000/svg" xmlns:xlink="http://www.w3.org/1999/xlink" id="Calque_1" xml:space="preserve" overflow="hidden"><path d="M70.5 99 63.8 75.8 64 2.3C64 1.6 63.7 1 63.2 0.5 62.7 0.1 62-0.1 61.3 -2.22045e-16L45.2 2.7 36 1.5C35.8 1.5 35.6 1.5 35.3 1.5 35.1 1.5 34.9 1.5 34.6 1.5L25.4 2.7 9.4 0C8.7-0.1 8 0.1 7.5 0.5 7 1 6.7 1.6 6.7 2.3L6.8 75.8 0.1 99C-0.1 99.7 0 100.4 0.5 101 1 101.6 1.6 101.9 2.3 101.9L18.3 101.9C18.3 101.9 18.3 101.9 18.3 101.9 18.3 101.9 18.3 101.9 18.3 101.9L52.3 101.9C52.3 101.9 52.3 101.9 52.3 101.9 52.3 101.9 52.3 101.9 52.3 101.9L68.3 101.9C69 101.9 69.7 101.6 70.1 101 70.6 100.4 70.7 99.7 70.5 99ZM35.3 6.1C35.3 6.1 35.3 6.1 35.3 6.1 35.4 6.1 35.4 6.1 35.4 6.1L42.8 7.1 37 73C37 73.4 37 73.8 37.2 74.2L48.6 97.3 22 97.3 33.4 74.2C33.6 73.8 33.7 73.4 33.6 73L27.9 7 35.3 6.1ZM11.3 76.8C11.4 76.6 11.4 76.4 11.4 76.2L11.3 5 23.3 7 29 72.8 16.9 97.3 5.4 97.3 11.3 76.8ZM53.7 97.3 41.6 72.8 47.4 7 59.4 5 59.3 76.1C59.3 76.3 59.3 76.5 59.4 76.7L65.3 97.3 53.7 97.3Z" fill="#053359"/></svg>